<svg width="66" height="14" viewBox="0 0 66 14" fill="none" xmlns="http://www.w3.org/2000/svg">
<path fill-rule="evenodd" clip-rule="evenodd" d="M50.0778 2.96591C50.5172 3.26136 50.7672 3.67803 50.8278 4.21591H52.521C52.5059 3.59091 52.3241 3.03788 51.9756 2.55682C51.6271 2.07197 51.1498 1.69129 50.5438 1.41477C49.9415 1.13826 49.2464 1 48.4585 1C47.6782 1 46.9775 1.14015 46.3563 1.42045C45.735 1.69697 45.2426 2.08523 44.879 2.58523C44.5153 3.08523 44.3335 3.67045 44.3335 4.34091C44.3335 5.15152 44.6044 5.80303 45.146 6.29545C45.6915 6.78788 46.4301 7.16098 47.3619 7.41477L48.7369 7.78977C49.1536 7.89962 49.5267 8.02652 49.8563 8.17045C50.1896 8.31439 50.4528 8.49621 50.646 8.71591C50.843 8.93561 50.9415 9.2178 50.9415 9.5625C50.9415 9.94129 50.8297 10.2727 50.6063 10.5568C50.3828 10.8371 50.076 11.0568 49.6858 11.2159C49.2994 11.3712 48.8582 11.4489 48.3619 11.4489C47.9112 11.4489 47.4964 11.3826 47.1176 11.25C46.7426 11.1136 46.4339 10.9072 46.1915 10.6307C45.9528 10.3504 45.8165 10 45.7824 9.57955H44.021C44.0589 10.2803 44.2578 10.8864 44.6176 11.3977C44.9775 11.9053 45.4756 12.2973 46.1119 12.5739C46.7483 12.8504 47.5021 12.9886 48.3733 12.9886C49.2824 12.9886 50.057 12.8409 50.6972 12.5455C51.3411 12.25 51.8316 11.8466 52.1688 11.3352C52.5097 10.8239 52.6801 10.2386 52.6801 9.57955C52.6801 9.05682 52.576 8.60795 52.3676 8.23295C52.1631 7.85795 51.8941 7.54356 51.5608 7.28977C51.2275 7.03598 50.8657 6.83144 50.4756 6.67614C50.0854 6.52083 49.7047 6.39773 49.3335 6.30682L48.1972 6.01136C47.9699 5.95455 47.7332 5.88258 47.4869 5.79545C47.2407 5.70455 47.0097 5.5928 46.7938 5.46023C46.5816 5.32386 46.4093 5.1553 46.2767 4.95455C46.1479 4.75379 46.0835 4.51515 46.0835 4.23864C46.0835 3.90909 46.1782 3.61553 46.3676 3.35795C46.5608 3.09659 46.8316 2.89205 47.1801 2.74432C47.5286 2.5928 47.9415 2.51705 48.4188 2.51705C49.0854 2.51705 49.6385 2.66667 50.0778 2.96591ZM54.6037 12.7955H56.4673L57.5331 9.71591H62.0796L63.1435 12.7955H65.0071L60.8196 1.15909H58.7912L54.6037 12.7955ZM61.5692 8.23863L59.8537 3.27272H59.7628L58.0443 8.23863H61.5692ZM31.8304 1.15909H33.8247L36.8645 6.44886H36.9895L40.0293 1.15909H42.0236L37.802 8.22727V12.7955H36.052V8.22727L31.8304 1.15909ZM22.2875 1.15909V12.7955H29.6511V11.2841H24.0432V7.72159H29.2023V6.21591H24.0432V2.67045H29.583V1.15909H22.2875ZM11.175 12.7955V1.15909H15.3227C16.2242 1.15909 16.9724 1.31439 17.567 1.625C18.1655 1.9356 18.6125 2.36553 18.908 2.91477C19.2034 3.46022 19.3511 4.09091 19.3511 4.80682C19.3511 5.51894 19.2015 6.14583 18.9023 6.6875C18.6068 7.22538 18.1599 7.64394 17.5614 7.94318C17.4524 7.99802 17.3382 8.04783 17.219 8.09262L19.7943 12.7955H17.7943L15.4302 8.39125C15.3927 8.39178 15.355 8.39204 15.317 8.39204H12.9307V12.7955H11.175ZM12.9307 2.66477V6.88068H15.158C15.7261 6.88068 16.1883 6.79924 16.5443 6.63636C16.9042 6.47348 17.1674 6.23674 17.3341 5.92613C17.5008 5.61553 17.5841 5.24242 17.5841 4.80682C17.5841 4.36742 17.4989 3.98674 17.3284 3.66477C17.1617 3.3428 16.8985 3.09659 16.5386 2.92613C16.1826 2.75189 15.7148 2.66477 15.1352 2.66477H12.9307ZM1 1.15909V12.7955H2.75568V7.72159H7.69886V6.21591H2.75568V2.67045H8.21591V1.15909H1Z" fill="#1F2024"/>
</svg>
